<svg xmlns="http://www.w3.org/2000/svg" viewBox="0 0 120 120" fill="none" stroke="#B07B54" stroke-width="1.2" stroke-linecap="round" stroke-linejoin="round">
  <ellipse cx="38" cy="38" rx="13" ry="16"/>
  <ellipse cx="62" cy="26" rx="14" ry="17"/>
  <ellipse cx="84" cy="42" rx="12" ry="15"/>
  <ellipse cx="50" cy="60" rx="10" ry="12"/>
  <ellipse cx="74" cy="64" rx="9" ry="11"/>
  <path d="M38 54c2 12-4 20-2 30"/>
  <path d="M62 43c0 16 0 28-2 41"/>
  <path d="M84 57c-2 12 0 20-2 27"/>
  <path d="M50 72c2 8 4 12 6 20"/>
  <path d="M74 75c-2 6-4 10-6 17"/>
  <path d="M46 104h30"/>
</svg>
